{
	"patcher" : 	{
		"fileversion" : 1,
		"appversion" : 		{
			"major" : 7,
			"minor" : 3,
			"revision" : 3,
			"architecture" : "x86",
			"modernui" : 1
		}
,
		"rect" : [ 1061.0, 620.0, 684.0, 706.0 ],
		"bglocked" : 0,
		"openinpresentation" : 0,
		"default_fontsize" : 12.0,
		"default_fontface" : 0,
		"default_fontname" : "Arial",
		"gridonopen" : 1,
		"gridsize" : [ 15.0, 15.0 ],
		"gridsnaponopen" : 1,
		"objectsnaponopen" : 1,
		"statusbarvisible" : 2,
		"toolbarvisible" : 1,
		"lefttoolbarpinned" : 0,
		"toptoolbarpinned" : 0,
		"righttoolbarpinned" : 0,
		"bottomtoolbarpinned" : 0,
		"toolbars_unpinned_last_save" : 0,
		"tallnewobj" : 0,
		"boxanimatetime" : 200,
		"enablehscroll" : 1,
		"enablevscroll" : 1,
		"devicewidth" : 0.0,
		"description" : "",
		"digest" : "",
		"tags" : "",
		"style" : "",
		"subpatcher_template" : "",
		"boxes" : [ 			{
				"box" : 				{
					"data" : 					{
						"clips" : [ 							{
								"filename" : "ocean.mp4",
								"filekind" : "moviefile",
								"loop" : 0,
								"content_state" : 								{
									"outputmode" : [ 1 ],
									"out_name" : [ "u339000651" ],
									"dim" : [ 1, 1 ],
									"framereport" : [ 0 ],
									"drawto" : [ "" ],
									"rate" : [ 1.0 ],
									"time" : [ 0 ],
									"time_secs" : [ 0.0 ],
									"output_texture" : [ 0 ],
									"automatic" : [ 0 ],
									"texture_name" : [ "u865000649" ],
									"autostart" : [ 1 ],
									"dstrect" : [ 0, 0, 1, 1 ],
									"looppoints" : [ 0, 0 ],
									"interp" : [ 0 ],
									"colormode" : [ "argb" ],
									"loopstart" : [ 0 ],
									"engine" : [ "avf" ],
									"adapt" : [ 1 ],
									"moviefile" : [ "" ],
									"loopreport" : [ 0 ],
									"usesrcrect" : [ 0 ],
									"usedstrect" : [ 0 ],
									"loopend" : [ 0 ],
									"position" : [ 0.0 ],
									"vol" : [ 1.0 ],
									"unique" : [ 0 ],
									"srcrect" : [ 0, 0, 1, 1 ]
								}

							}
 ]
					}
,
					"id" : "obj-29",
					"maxclass" : "jit.playlist",
					"numinlets" : 1,
					"numoutlets" : 3,
					"outlettype" : [ "jit_matrix", "", "dictionary" ],
					"patching_rect" : [ 274.0, 179.0, 150.0, 30.0 ],
					"style" : ""
				}

			}
, 			{
				"box" : 				{
					"id" : "obj-27",
					"maxclass" : "newobj",
					"numinlets" : 0,
					"numoutlets" : 0,
					"patching_rect" : [ 91.0, 110.0, 35.0, 22.0 ],
					"style" : "",
					"text" : "read"
				}

			}
, 			{
				"box" : 				{
					"id" : "obj-26",
					"maxclass" : "toggle",
					"numinlets" : 1,
					"numoutlets" : 1,
					"outlettype" : [ "int" ],
					"parameter_enable" : 0,
					"patching_rect" : [ 56.5, 16.5, 24.0, 24.0 ],
					"style" : ""
				}

			}
, 			{
				"box" : 				{
					"data" : 					{
						"clips" : [ 							{
								"filename" : "valugan.mp4",
								"filekind" : "moviefile",
								"loop" : 0,
								"content_state" : 								{
									"outputmode" : [ 1 ],
									"out_name" : [ "u339000651" ],
									"dim" : [ 1, 1 ],
									"framereport" : [ 0 ],
									"drawto" : [ "" ],
									"rate" : [ 1.0 ],
									"time" : [ 0 ],
									"time_secs" : [ 0.0 ],
									"output_texture" : [ 0 ],
									"automatic" : [ 0 ],
									"texture_name" : [ "u865000649" ],
									"autostart" : [ 1 ],
									"dstrect" : [ 0, 0, 1, 1 ],
									"looppoints" : [ 0, 0 ],
									"interp" : [ 0 ],
									"colormode" : [ "argb" ],
									"loopstart" : [ 0 ],
									"engine" : [ "avf" ],
									"adapt" : [ 1 ],
									"moviefile" : [ "" ],
									"loopreport" : [ 0 ],
									"usesrcrect" : [ 0 ],
									"usedstrect" : [ 0 ],
									"loopend" : [ 0 ],
									"position" : [ 0.0 ],
									"vol" : [ 1.0 ],
									"unique" : [ 0 ],
									"srcrect" : [ 0, 0, 1, 1 ]
								}

							}
 ]
					}
,
					"id" : "obj-24",
					"maxclass" : "jit.playlist",
					"numinlets" : 1,
					"numoutlets" : 3,
					"outlettype" : [ "jit_matrix", "", "dictionary" ],
					"patching_rect" : [ 129.0, 72.0, 150.0, 30.0 ],
					"style" : ""
				}

			}
, 			{
				"box" : 				{
					"id" : "obj-21",
					"maxclass" : "newobj",
					"numinlets" : 1,
					"numoutlets" : 2,
					"outlettype" : [ "bang", "" ],
					"patching_rect" : [ 128.0, 414.0, 151.0, 22.0 ],
					"style" : "",
					"text" : "jit.window scnery_Valugan"
				}

			}
, 			{
				"box" : 				{
					"id" : "obj-19",
					"maxclass" : "newobj",
					"numinlets" : 1,
					"numoutlets" : 4,
					"outlettype" : [ "signal", "signal", "jit_matrix", "" ],
					"patching_rect" : [ 69.0, 153.0, 108.0, 22.0 ],
					"style" : "",
					"text" : "jit.movie~ 320 240"
				}

			}
, 			{
				"box" : 				{
					"id" : "obj-4",
					"maxclass" : "ezdac~",
					"numinlets" : 2,
					"numoutlets" : 0,
					"patching_rect" : [ 46.0, 459.0, 45.0, 45.0 ],
					"style" : ""
				}

			}
, 			{
				"box" : 				{
					"id" : "obj-12",
					"maxclass" : "ezdac~",
					"numinlets" : 2,
					"numoutlets" : 0,
					"patching_rect" : [ 332.0, 438.0, 80.0, 80.0 ],
					"style" : ""
				}

			}
, 			{
				"box" : 				{
					"id" : "obj-13",
					"maxclass" : "playbar",
					"numinlets" : 1,
					"numoutlets" : 2,
					"outlettype" : [ "", "int" ],
					"patching_rect" : [ 332.0, 354.0, 291.0, 26.0 ],
					"style" : ""
				}

			}
, 			{
				"box" : 				{
					"id" : "obj-2",
					"maxclass" : "jit.pwindow",
					"numinlets" : 1,
					"numoutlets" : 2,
					"outlettype" : [ "", "" ],
					"patching_rect" : [ 454.0, 438.0, 172.0, 129.0 ],
					"presentation_rect" : [ 432.0, 532.0, 320.0, 240.0 ]
				}

			}
, 			{
				"box" : 				{
					"id" : "obj-1",
					"maxclass" : "newobj",
					"numinlets" : 1,
					"numoutlets" : 4,
					"outlettype" : [ "signal", "signal", "jit_matrix", "" ],
					"patching_rect" : [ 332.0, 389.0, 202.0, 22.0 ],
					"style" : "",
					"text" : "jit.movie~ @moviefile crashtest.mov"
				}

			}
, 			{
				"box" : 				{
					"id" : "obj-9",
					"maxclass" : "message",
					"numinlets" : 2,
					"numoutlets" : 1,
					"outlettype" : [ "" ],
					"patching_rect" : [ -123.0, 233.0, 50.0, 0.0 ],
					"style" : "",
					"text" : "start"
				}

			}
, 			{
				"box" : 				{
					"id" : "obj-8",
					"maxclass" : "jit.pwindow",
					"numinlets" : 1,
					"numoutlets" : 2,
					"outlettype" : [ "", "" ],
					"patching_rect" : [ 129.0, 459.0, 132.0, 99.0 ]
				}

			}
 ],
		"lines" : [ 			{
				"patchline" : 				{
					"destination" : [ "obj-12", 1 ],
					"disabled" : 0,
					"hidden" : 0,
					"source" : [ "obj-1", 1 ]
				}

			}
, 			{
				"patchline" : 				{
					"destination" : [ "obj-12", 0 ],
					"disabled" : 0,
					"hidden" : 0,
					"source" : [ "obj-1", 0 ]
				}

			}
, 			{
				"patchline" : 				{
					"destination" : [ "obj-2", 0 ],
					"disabled" : 0,
					"hidden" : 0,
					"source" : [ "obj-1", 2 ]
				}

			}
, 			{
				"patchline" : 				{
					"destination" : [ "obj-1", 0 ],
					"disabled" : 0,
					"hidden" : 0,
					"source" : [ "obj-13", 0 ]
				}

			}
, 			{
				"patchline" : 				{
					"destination" : [ "obj-8", 0 ],
					"disabled" : 0,
					"hidden" : 0,
					"source" : [ "obj-21", 0 ]
				}

			}
, 			{
				"patchline" : 				{
					"destination" : [ "obj-24", 0 ],
					"disabled" : 0,
					"hidden" : 0,
					"source" : [ "obj-26", 0 ]
				}

			}
 ],
		"dependency_cache" : [ 			{
				"name" : "valugan.mp4",
				"bootpath" : "~/Dropbox/scnery_Valugan/exhibit_valugan/data",
				"type" : "mpg4",
				"implicit" : 1
			}
, 			{
				"name" : "ocean.mp4",
				"bootpath" : "~/Dropbox/scnery_Valugan/exhibit_valugan/data",
				"type" : "mpg4",
				"implicit" : 1
			}
, 			{
				"name" : "jit.movie~.mxo",
				"type" : "iLaX"
			}
 ],
		"autosave" : 0
	}

}
